# xmcd
#
# Track frame offsets: 
#        150
#        12732
#        27850
#        43297
#        56912
#        69435
#        81487
#        99180
#        115927
#        128252
#        142212
#        153445
#        164332
#        176800
#        188977
#        212840
#        222532
#        244825
#        253820
#        267782
#
# Disc length: 3776 seconds
#
# Revision: 0
# Processed by: cddbd v1.5.2PL0 Copyright (c) Steve Scherf et al.
# Submitted via: ExactAudioCopy v1.1
#
DISCID=320ebe14
DTITLE=The Platters - 20 Greatest Hits
DYEAR=1990
DGENRE=R&B - Soul
TTITLE0=Only You
TTITLE1=The Great Pretender
TTITLE2=My Prayer
TTITLE3=I'm Sorry
TTITLE4=I Love You A Thousand Times
TTITLE5=Heaven on Earth
TTITLE6=If I Had A Love
TTITLE7=I Love You Because
TTITLE8=With This Ring
TTITLE9=Alone In The Night
TTITLE10=Smoke Gets In Your Eyes
TTITLE11=Red Sails In The Sunset
TTITLE12=Twilight Time
TTITLE13=The Magic Touch
TTITLE14=My Way
TTITLE15=Doesn't It Ring A Bell
TTITLE16=Unchained Melody
TTITLE17=Sweet, Sweet Lovin'
TTITLE18=Harbor Lights
TTITLE19=Why
EXTD=
EXTT0=
EXTT1=
EXTT2=
EXTT3=
EXTT4=
EXTT5=
EXTT6=
EXTT7=
EXTT8=
EXTT9=
EXTT10=
EXTT11=
EXTT12=
EXTT13=
EXTT14=
EXTT15=
EXTT16=
EXTT17=
EXTT18=
EXTT19=
PLAYORDER=
